<svg width="800" height="800" viewBox="0 0 800 800" xmlns="http://www.w3.org/2000/svg" role="img" aria-label="Ілюстрація Боба">
  <defs>
    <linearGradient id="g1" x1="0" y1="0" x2="1" y2="1">
      <stop offset="0%" stop-color="#5a101d"/>
      <stop offset="100%" stop-color="#1b0d10"/>
    </linearGradient>
  </defs>
  <rect width="800" height="800" rx="60" fill="url(#g1)"/>
  <circle cx="400" cy="410" r="210" fill="#d6b09f"/>
  <path d="M250 260L170 140L255 165L310 245Z" fill="#d6b09f"/>
  <path d="M550 260L630 140L545 165L490 245Z" fill="#d6b09f"/>
  <ellipse cx="330" cy="400" rx="22" ry="30" fill="#2a1013"/>
  <ellipse cx="470" cy="400" rx="22" ry="30" fill="#2a1013"/>
  <path d="M360 470Q400 505 440 470" stroke="#2a1013" stroke-width="12" stroke-linecap="round" fill="none"/>
  <path d="M390 430Q400 445 410 430" stroke="#2a1013" stroke-width="10" stroke-linecap="round" fill="none"/>
  <path d="M250 360H150" stroke="#f3c7b3" stroke-width="8" stroke-linecap="round"/>
  <path d="M250 390H140" stroke="#f3c7b3" stroke-width="8" stroke-linecap="round"/>
  <path d="M550 360H650" stroke="#f3c7b3" stroke-width="8" stroke-linecap="round"/>
  <path d="M550 390H660" stroke="#f3c7b3" stroke-width="8" stroke-linecap="round"/>
  <text x="400" y="695" text-anchor="middle" font-family="Inter, Arial, sans-serif" font-size="56" fill="#fff">Боб</text>
</svg>
